<svg id="Layer_1" data-name="Layer 1" xmlns="http://www.w3.org/2000/svg" viewBox="0 0 1954.45 512.96"><defs><style>.cls-1{fill:#007;}.cls-2{fill:#f98f07;}.cls-3{fill:#f9cf09;}.cls-4{fill:#0ef;}.cls-5{fill:#0df;}.cls-6{fill:#0cf;}</style></defs><circle class="cls-1" cx="256.48" cy="256.48" r="256.48"/><path class="cls-2" d="M171.28,794.67A221.51,221.51,0,0,1,268.73,769v97.83A98.17,98.17,0,0,0,220,878.74Z" transform="translate(-22.78 -743.52)"/><path class="cls-2" d="M289.47,769v96.89a134.08,134.08,0,0,1,48.63,11.5l49.38-83.13a271.36,271.36,0,0,0-98-25.26Z" transform="translate(-22.78 -743.52)"/><path class="cls-2" d="M405.58,805.6,356.76,888a109.34,109.34,0,0,1,34.68,35.82l84.45-48.64a237.77,237.77,0,0,0-70.31-69.55Z" transform="translate(-22.78 -743.52)"/><path class="cls-2" d="M486.82,893.06l-84.07,48.07a124.67,124.67,0,0,1,12.63,48.63h98.39a222.07,222.07,0,0,0-26.95-96.7Z" transform="translate(-22.78 -743.52)"/><path class="cls-2" d="M416.51,1011.06c-.71,6.39-1.76,13.32-3.3,20.69a220.2,220.2,0,0,1-6.5,24.17,274.53,274.53,0,0,0,107.06-37.13v-7.73Z" transform="translate(-22.78 -743.52)"/><path class="cls-2" d="M152.24,805.41A171.33,171.33,0,0,0,109.8,839.9c-12.1,13.71-27.12,35.48-26.93,35.63h0c.56,0,83.31,47.69,83.31,47.69a116.28,116.28,0,0,1,36.38-34.68Z" transform="translate(-22.78 -743.52)"/><path class="cls-2" d="M71.52,892.78A221.25,221.25,0,0,0,44.94,990h97.78a127,127,0,0,1,12.63-48.63Z" transform="translate(-22.78 -743.52)"/><path class="cls-2" d="M44.94,1010.87A112.08,112.08,0,0,0,49.13,1044c10.91-5.32,22.73-10.6,35.44-15.64a505.53,505.53,0,0,1,52.4-17.53Z" transform="translate(-22.78 -743.52)"/><path class="cls-3" d="M163.17,1007.48A116.81,116.81,0,0,1,176,947.91c20.16-38.67,55.83-52.47,64.09-55.41a114.44,114.44,0,0,1,143.26,58,122.59,122.59,0,0,1-.95,107.63,154.14,154.14,0,0,1-15.64,0c-6.12-.31-24.61-1.61-49-10.37-9.72-3.48-19.61-8.29-39.4-17.9-13-6.3-15.86-8.11-23.75-11.12a174.89,174.89,0,0,0-33.93-9,216.3,216.3,0,0,0-41.74-3.29Z" transform="translate(-22.78 -743.52)"/><path class="cls-4" d="M53.85,1066.48A257.22,257.22,0,0,1,98,1044.23c15.69-6.1,43.82-16.74,81.81-17a201.71,201.71,0,0,1,66.35,10.55C264,1044,269.3,1049,284.56,1056.3c46.94,22.55,92.36,22.11,104.81,21.86,42.62-.86,74.84-13.52,90.85-20a278.2,278.2,0,0,0,30.16-14.32c-1.66,6.86-3.65,14.11-6,21.67-2.17,6.88-4.46,13.36-6.79,19.42q-6.69,3.63-13.95,7.16a306.4,306.4,0,0,1-38.64,16c-9.8,3.25-22.36,7.35-39.39,9.8a191,191,0,0,1-46.56,1.14,186.58,186.58,0,0,1-50.71-13.2c-14.77-5.89-15-7.92-38.26-18.09-16-7-24-10.52-34.87-13.58-21.54-6.08-39.12-6.1-50.52-6-5.5,0-32.31.42-66,10.93a246.8,246.8,0,0,0-51.08,22.62Z" transform="translate(-22.78 -743.52)"/><path class="cls-5" d="M77.88,1119.25a236.18,236.18,0,0,1,54.57-22.33c16.66-4.49,39.51-10.43,69.55-7.64a179.52,179.52,0,0,1,60.51,17c9.32,4.5,8.06,4.93,18.38,10.18a220.75,220.75,0,0,0,65.31,21.2c29.55,4.52,52.53,1.45,64.75-.28A243.17,243.17,0,0,0,483.61,1115a247.82,247.82,0,0,1-21,31.29,251,251,0,0,1-19.13,21.59c-5.8,1.65-13.71,3.73-23.19,5.65-10.84,2.2-25.91,5.26-44.11,5.66a190,190,0,0,1-69.55-11.69c-11.44-4.28-7.61-4.17-30.73-14.33-26.4-11.6-39.73-17.46-57.49-20.73-19.57-3.61-35-2.31-45.8-1.32a200.92,200.92,0,0,0-71.82,20.73Z" transform="translate(-22.78 -743.52)"/><path class="cls-6" d="M117.18,1167.32A173.21,173.21,0,0,1,163,1153.18c11.21-1.81,30.31-4.71,53.72,0,11.48,2.32,20.28,6,37.88,13.29,24.19,10.06,24.76,12.82,41,19.23A211.74,211.74,0,0,0,406.43,1197a188.68,188.68,0,0,1-22.34,13.29c-16,8.07-29.35,11.92-40.53,15.08a248,248,0,0,1-33,7.35,225.38,225.38,0,0,1-59.57.37,235,235,0,0,1-131-61.63Z" transform="translate(-22.78 -743.52)"/><path class="cls-1" d="M1400.24,1062.4c-.11-1.53-.23-2.49-.23-3.46q-.1-65.69-.19-131.37-.06-59.13-.08-118.27c0-10,0-20,.06-30,0-.56,0-1.12,0-1.69.14-3.32.57-3.76,4-3.92,1.83-.08,3.67-.09,5.5-.09,31.72,0,63.44,0,95.16.11a134,134,0,0,1,23.16,1.72c11.87,2.12,23.24,5.78,33.6,12.14a57,57,0,0,1,21.1,22.56,61.82,61.82,0,0,1,5.77,16.28,120.21,120.21,0,0,1,2.93,23.84c0,9.72.16,19.43.18,29.15q.09,44.15.12,88.28c0,6.48-.14,13-.21,19.43a116.54,116.54,0,0,1-2.85,24.71,55.48,55.48,0,0,1-14.12,26.51,71.1,71.1,0,0,1-13.44,10.85,59.81,59.81,0,0,1-6.77,3.45,96.91,96.91,0,0,1-29.58,8.31,235.67,235.67,0,0,1-27.85,1.6q-42.08.14-84.16.13c-2.68,0-5.36,0-8,0C1403.13,1062.66,1401.89,1062.51,1400.24,1062.4Zm59.67-144.94h0q0,39.88,0,79.78c0,6.34,0,12.67.1,19,0,3,.57,3.45,3.41,3.67,1,.08,2,.11,3,.12,10.71,0,21.42.09,32.12,0a61.17,61.17,0,0,0,9.24-.93,33.93,33.93,0,0,0,10.82-3.43,18.42,18.42,0,0,0,9-10.21,42.79,42.79,0,0,0,2.55-11.94c.36-7.16.83-14.33.85-21.5q.15-51.5,0-103c0-7-.15-14.07-.31-21.1a50.19,50.19,0,0,0-2.92-15.71,21.68,21.68,0,0,0-11.57-12.78,45.82,45.82,0,0,0-15.08-3.81c-12.51-1.32-25.05-.87-37.59-.56a7.84,7.84,0,0,0-1.66.25,2,2,0,0,0-1.65,1.72,23.93,23.93,0,0,0-.19,2.94c-.06,4.92-.15,9.85-.15,14.77Q1459.89,876.09,1459.91,917.46Z" transform="translate(-22.78 -743.52)"/><path class="cls-1" d="M593,917.41q0-66.93,0-133.87c0-2.53,0-5.06.09-7.6,0-1.43.66-2,2.1-2.14a29.18,29.18,0,0,1,3-.11c26.49,0,53-.05,79.48.06,5.77,0,11.56.41,17.3,1a81.83,81.83,0,0,1,24.33,6.69A57.73,57.73,0,0,1,734.94,792a48.05,48.05,0,0,1,14.32,24.44,117.62,117.62,0,0,1,.43,56,44.79,44.79,0,0,1-4.43,10.91A81.74,81.74,0,0,1,731,902.65c-1.68,1.69-3.65,3.09-5.45,4.66a1.69,1.69,0,0,0,0,2.86,13,13,0,0,0,1.75,1.17,40.12,40.12,0,0,1,10.06,8.29,21.71,21.71,0,0,0,2.07,2.11c4.4,3.67,7.47,8.38,10.47,13.15a13.67,13.67,0,0,1,1.12,2.27A91.43,91.43,0,0,1,756.87,963a228.54,228.54,0,0,1-.68,43.84c-1.12,10.08-4,19.59-9.62,28.1a42.77,42.77,0,0,1-9.4,10.19,80,80,0,0,1-17.52,10c-9.49,4.13-19.39,5.78-29.55,6.49-16.61,1.15-33.24,1-49.87,1.06-13.11.06-26.21,0-39.32-.06a44.88,44.88,0,0,1-5.06-.22c-1.78-.19-2.48-.92-2.64-2.73s-.14-3.37-.14-5.06q0-68.63,0-137.25ZM645.91,977h.22q0,19.43,0,38.84a18.34,18.34,0,0,0,.07,2.1c.16,1.37.74,1.93,2.17,2.13a13.57,13.57,0,0,0,1.69.1c7.74.22,15.48.54,23.23.61a80.78,80.78,0,0,0,10.52-.76,21,21,0,0,0,9.19-2.86c4.61-3,7.28-7.35,9.08-12.35a43.18,43.18,0,0,0,2.34-12.41,207.79,207.79,0,0,0-.22-29.94A49.3,49.3,0,0,0,699,944.78a19.28,19.28,0,0,0-9.28-8.84,31.46,31.46,0,0,0-13-3.32c-9-.19-18,0-27,.12a10.67,10.67,0,0,0-1.26.09c-1.66.25-2.25.82-2.43,2.4a18.52,18.52,0,0,0-.06,2.11Q645.9,957.17,645.91,977Zm0-123.79h.21c0,5.49,0,11,0,16.47S646,881,646,886.58c0,.7,0,1.41.06,2.11.15,1.37.74,1.91,2.2,2.09a10.64,10.64,0,0,0,1.26.07c8.74,0,17.49.08,26.19-.93a25.39,25.39,0,0,0,22.82-23,129.36,129.36,0,0,0,.23-27.4,39.72,39.72,0,0,0-3.28-12.17,16.92,16.92,0,0,0-8.66-8.86c-4.67-2.11-9.48-3.66-14.66-3.66q-10.77,0-21.56.11c-4.47,0-4.73.33-4.74,4.88Q645.85,836.53,645.86,853.22Z" transform="translate(-22.78 -743.52)"/><path class="cls-1" d="M1709.91,773.8c9.3,0,18.61,0,27.91,0a43.52,43.52,0,0,1,5.47.44,3.18,3.18,0,0,1,2.77,2.3,40.6,40.6,0,0,1,1.22,4.48c1.43,7.32,2.73,14.67,4.2,22,2,9.8,4.06,19.57,6.08,29.36,1.44,7,2.84,14.08,4.27,21.11q2.93,14.49,5.86,29,5.47,27.1,11,54.22c1.61,7.86,3.36,15.69,5,23.55s3.11,15.74,4.74,23.6q3.33,16.11,6.78,32.21c2.56,12,5.22,23.93,7.75,35.91a67.86,67.86,0,0,1,1,7.94c.14,1.62-.57,2.37-2.12,2.57a19.49,19.49,0,0,1-2.53.13q-17.34,0-34.68,0c-2.4,0-4.79-.2-7.18-.37a6.68,6.68,0,0,1-5.84-3.61,33.54,33.54,0,0,1-3-6.47c-1.35-5-2.41-10.13-3.45-15.22-1.5-7.31-2.84-14.64-4.32-22-1.25-6.12-1.68-6.49-7.73-6.49q-26.64,0-53.28.13c-1.55,0-3.1.09-4.65.2a2.76,2.76,0,0,0-2.72,2.24c-.37,1.5-.69,3-1,4.54-1.14,6.08-2.19,12.19-3.41,18.26-1.49,7.45-3.12,14.87-4.71,22.31a17.32,17.32,0,0,1-.68,2.44,5.52,5.52,0,0,1-4.66,3.79,55.69,55.69,0,0,1-6.33.34q-15.65,0-31.29-.1a28.1,28.1,0,0,1-4.21-.29,3.29,3.29,0,0,1-3-3.49,25.68,25.68,0,0,1,.52-4.18c2.42-13.44,5.06-26.83,8.22-40.12,2.35-9.85,4.6-19.72,6.82-29.6.74-3.3,1.21-6.65,1.88-10,1.55-7.72,3.11-15.45,4.73-23.17,1.86-8.81,3.82-17.61,5.65-26.43,2-9.65,3.91-19.31,5.88-29,.93-4.55,1.93-9.09,2.87-13.63,2.53-12.12,5.09-24.24,7.56-36.37q5.45-26.68,10.8-53.38c.72-3.59,1.38-7.19,2.1-10.78a17.65,17.65,0,0,1,.77-2.85c1.17-3.18,3.38-5.18,6.85-5.42,3.23-.22,6.47-.33,9.71-.35,7.48,0,15,0,22.42,0Zm-3.51,56.13c-1,1-.94,2.29-1.16,3.5-.42,2.21-.8,4.43-1.23,6.64-1,5.1-2,10.2-3,15.32-1.66,8.84-3.26,17.71-4.89,26.56q-2.05,11.2-4.14,22.41c-1.64,8.85-3.31,17.7-4.94,26.55q-3.12,17-6.21,34a3,3,0,0,0-.06.42c-.14,1.42.38,2.22,1.72,2.39a25.29,25.29,0,0,0,3.37.19q20.3,0,40.58,0a31.74,31.74,0,0,0,3.37-.2c2.12-.26,2.77-1,2.42-3.06-.41-2.35-1.08-4.66-1.51-7q-3.37-18.25-6.69-36.53c-2.12-11.63-4.28-23.25-6.37-34.88q-3-16.62-5.86-33.26c-1.19-6.93-2.1-13.91-4-20.71C1707.57,831.37,1707.72,830.22,1706.4,829.93Z" transform="translate(-22.78 -743.52)"/><path class="cls-1" d="M949.11,975c1.61-.15,2.85-.36,4.08-.36q18,0,35.95.07a20.76,20.76,0,0,1,3,.16c2.9.39,4,1.48,4.15,4.36s.13,5.91.15,8.87a88.9,88.9,0,0,0,1.59,15.52,30.9,30.9,0,0,0,3,8.76c3,5.66,7.34,9.51,13.88,10.58a41.64,41.64,0,0,0,15.54-.17c6.48-1.38,11.38-4.85,14.06-11a39.87,39.87,0,0,0,2.45-7.6c1.84-8.65.66-17.06-2.27-25.32a60,60,0,0,0-14.09-22.3c-4.15-4.22-8.41-8.28-12.94-12.11-7.32-6.17-14.4-12.63-21.51-19-6.59-5.93-13.26-11.79-19.57-18a108.18,108.18,0,0,1-10.66-12.53,79.72,79.72,0,0,1-15.07-38.93,99.62,99.62,0,0,1,.57-28.64A98.08,98.08,0,0,1,956,809.77c2.87-7.65,7.6-14,13.19-19.92a56.37,56.37,0,0,1,22.28-14.13c16.13-5.76,32.72-6.69,49.6-4.23a81.18,81.18,0,0,1,27.45,9.36,46.22,46.22,0,0,1,12.42,10,58.83,58.83,0,0,1,14.19,29.23c1.44,7.77,2.71,15.52,2.6,23.45,0,1,0,2-.07,3a6.75,6.75,0,0,1-5.25,6.35,15.31,15.31,0,0,1-3.76.47c-10,0-20,.07-30,0-4.87-.06-6.57-1.89-7.34-6.91-.83-5.42-1.81-10.82-2.73-16.23a22.81,22.81,0,0,0-4.38-9.51,17,17,0,0,0-6-5.21c-8-4.12-16.29-4.33-24.62-1.47-4.45,1.53-7.53,5.07-9.42,9.24a41.69,41.69,0,0,0-2.36,28.87,57.09,57.09,0,0,0,17.6,28.75c4.77,4.17,9.27,8.64,14,12.87,3.66,3.29,7.45,6.45,11.23,9.62,5,4.16,10.12,8.1,14.92,12.44,9.93,9,19.39,18.46,26.18,30.21a84.42,84.42,0,0,1,8.71,20.06,101.79,101.79,0,0,1-.49,57.46c-4.2,13.47-12.51,23.67-24.61,31a79.53,79.53,0,0,1-33.09,10.79,105.15,105.15,0,0,1-39-3,67.49,67.49,0,0,1-22.22-10c-9.26-6.68-16.17-15.17-20.08-26a102.63,102.63,0,0,1-5.35-23.84,224.33,224.33,0,0,1-.89-24A30.37,30.37,0,0,1,949.11,975Z" transform="translate(-22.78 -743.52)"/><path class="cls-1" d="M839.36,815.75c-.29,24.81-.27,49.57-.11,74.32a16.93,16.93,0,0,0,.35,2.36c1.45,1,2.9.64,4.26.64,13.81,0,27.63,0,41.44,0,6.21,0,12.41.05,18.61.2,4.93.11,5.25.48,5.27,5.39q.06,16.05,0,32.1c0,1.24-.18,2.49-.25,3.44-1.43,1.42-2.9,1.1-4.28,1.1q-15.43.08-30.87.1c-9.44,0-18.89,0-28.33,0-1.8,0-3.67-.26-5.38.6-1.13,1.52-.83,3.27-.85,4.92-.13,10-.26,20-.26,30,0,14.36.12,28.72.21,43.08,0,1.67-.29,3.4.65,4.94,1.25,1,2.7.67,4.08.67q32.77,0,65.55,0c3.52,0,7,.18,10.56.3a21.22,21.22,0,0,1,2.53.21,4.62,4.62,0,0,1,4.11,4.62c0,.84.09,1.68.1,2.53.09,6.61.21,13.23.24,19.85,0,2.53-.09,5.07-.28,7.59-.34,4.42-2.25,6.57-6.67,7.41a37.37,37.37,0,0,1-5.89.52q-7,.18-13.95.19l-105.72-.11a42.15,42.15,0,0,1-4.64-.19,2.51,2.51,0,0,1-2.5-2.41,20.79,20.79,0,0,1-.2-2.95c-.09-12.81-.21-25.62-.25-38.43q-.09-29.15-.08-58.29-.08-83.83-.11-167.68c0-4.93,0-9.86.19-14.78.13-3.88.63-4.3,4.58-4.34,5.78,0,11.55,0,17.33,0l104.46,0c3.1,0,6.21,0,9.3.18s4,1.14,4.28,4.12a7.89,7.89,0,0,1,0,.84c0,10.14.05,20.28-.1,30.41-.07,4.85-.84,5.54-5.82,5.59q-22.83.24-45.67.29c-10.29,0-20.58,0-30.87,0C842.94,815,841.36,814.72,839.36,815.75Z" transform="translate(-22.78 -743.52)"/><path class="cls-1" d="M1884.11,899.79c.71-2.33,1.2-4.07,1.77-5.78,3.61-11,7.27-21.91,10.86-32.88,2.37-7.22,4.63-14.47,7-21.7,2.15-6.55,4.41-13.07,6.54-19.62,2.39-7.36,4.67-14.76,7-22.12q2.46-7.63,5.06-15.21A25,25,0,0,1,1924,779c1.63-3.08,4-5,7.7-5,2.11,0,4.22-.26,6.33-.26q14-.06,27.91,0a32.29,32.29,0,0,1,5.45.56,2.14,2.14,0,0,1,1.74,2.52,18.47,18.47,0,0,1-.8,3.26q-4.65,14.25-9.36,28.48c-.66,2-1.48,4-2.18,5.95q-4.26,12.15-8.47,24.31c-1.93,5.59-3.71,11.23-5.65,16.81-2.72,7.84-5.57,15.64-8.28,23.48-5,14.49-9.94,29-15,43.5-2.73,7.84-5.66,15.6-8.41,23.43-2,5.71-3.86,11.47-5.79,17.21a25.82,25.82,0,0,0-.94,8.35q.07,35.48.11,70.95c0,4.92,0,9.85-.08,14.78a29,29,0,0,1-.2,3.36,1.83,1.83,0,0,1-1.68,1.65,37.18,37.18,0,0,1-4.22.24q-16.48.06-33,.06c-3.1,0-6.2,0-9.3,0s-4.05-1-4.25-4c-.09-1.4-.05-2.81-.05-4.22q0-41.39-.09-82.78a45.28,45.28,0,0,0-2-12.85c-4.31-14.6-9.86-28.76-14.75-43.15-3.21-9.45-6.87-18.76-10.18-28.19q-5.73-16.32-11.2-32.75c-3.42-10.28-7.16-20.45-10.81-30.65-4.37-12.19-8.55-24.46-12.68-36.73a59.1,59.1,0,0,1-2.12-9c-.47-2.84.46-3.83,3.33-4.22a16.63,16.63,0,0,1,2.11-.15q19,0,38,.05c1.13,0,2.25.17,3.38.19,3.26,0,5.2,1.7,6.2,4.73,1.55,4.67,3.32,9.28,4.77,14,4.69,15.19,9.24,30.43,13.94,45.62q5.87,18.94,12,37.83c2.37,7.37,4.9,14.69,7.38,22C1883,898.66,1883.35,898.92,1884.11,899.79Z" transform="translate(-22.78 -743.52)"/><path class="cls-1" d="M1265.2,774.29c.12,1.3.32,2.53.32,3.77,0,10.7,0,21.4,0,32.1,0,4.46-.36,4.79-4.87,4.79-13.25,0-26.5,0-39.75-.07-1.55,0-3.11,0-4.65.08a15.38,15.38,0,0,0-2.53.64c-.07,1.23-.19,2.34-.19,3.44l0,236.53c0,1.41,0,2.82-.11,4.22a2.58,2.58,0,0,1-2.36,2.58,18.88,18.88,0,0,1-3.36.27q-18.6.12-37.21.19a28.36,28.36,0,0,1-3.8-.18c-2.37-.29-3.46-1.35-3.86-3.75a23.67,23.67,0,0,1-.28-3.36c-.12-7.32-.32-14.64-.31-22q0-95.46.14-190.91c0-7.74,0-15.49-.09-23.23a23.51,23.51,0,0,0-.15-2.52,1.81,1.81,0,0,0-1.65-1.66,25.37,25.37,0,0,0-3.37-.18l-40.6-.16c-5.35,0-5.39-.06-5.44-5.41-.07-7.61-.18-15.21-.22-22.81,0-2.11,0-4.23.23-6.33.35-3.87,2.57-6.11,6.48-6.51,2-.2,3.94-.22,5.91-.23q19.45,0,38.9-.06l95.57,0c1.55,0,3.11,0,4.65.08A17.65,17.65,0,0,1,1265.2,774.29Z" transform="translate(-22.78 -743.52)"/><path class="cls-1" d="M1340.91,1181.44c.15-.63.34-1.25.44-1.89.42-2.92.78-5.84,1.22-8.76.64-4.17,1.36-8.33,2-12.5,1.79-11.83,3.53-23.67,5.33-35.49.66-4.32,1.45-8.61,2.22-12.9a30.79,30.79,0,0,1,.85-3.27,2.17,2.17,0,0,1,1.86-1.51,6.57,6.57,0,0,1,1.25-.15c4.8,0,9.59-.14,14.38-.11,2,0,2.45.43,2.81,2.44,1.17,6.51,2.25,13,3.35,19.56,1,6,2,11.94,3,17.91,1.32,7.76,2.67,15.52,4,23.29.66,3.88,1.22,7.78,1.87,11.66a8,8,0,0,0,.78,1.75c1.46-.5,1.44-1.57,1.57-2.51.65-5,1.27-10,1.91-15.07s1.19-9.78,1.9-14.65c1.56-10.72,3.22-21.43,4.79-32.15.3-2.09.39-4.2.58-6.31.09-1,.14-2,.31-2.93.37-2.07,1-2.73,3.07-2.76q8.25-.1,16.49.07c2,0,2.81,1,2.6,3-.39,3.91-.87,7.82-1.47,11.71q-1.92,12.3-4,24.57c-1.23,7.21-2.64,14.4-3.91,21.6-2.31,13.17-4.55,26.35-6.88,39.52-1.1,6.23-2.3,12.45-3.51,18.66-.53,2.76-1.21,3.38-3.91,3.41q-8.46.07-16.92,0c-2.61,0-3.13-.58-3.54-3.19-1.75-11-3.42-22-5.23-32.93-1.19-7.22-2.59-14.41-3.84-21.62-.77-4.43-1.43-8.89-2.17-13.33-.15-.92-.06-2-1.54-2.47a8.12,8.12,0,0,0-.66,1.84c-1.3,13.19-4,26.14-6.22,39.19-1.38,8.33-2.55,16.69-3.83,25-.3,1.95-.59,3.9-1,5.83a2,2,0,0,1-2,1.82q-9.93,0-19.86-.17a2.09,2.09,0,0,1-2-1.93c-.55-2.76-1.09-5.53-1.58-8.3q-4.56-25.56-9.09-51.13c-2.06-11.64-4-23.3-6.09-34.94-1.22-6.93-2.5-13.85-3.75-20.77-.08-.42-.19-.83-.25-1.24-.6-3.85-.1-4.52,3.8-4.56,5.07,0,10.15,0,15.22.07a26.61,26.61,0,0,1,3.08.43,25,25,0,0,1,.94,3.24c1.4,8.89,2.8,17.78,4.09,26.69.8,5.56,1.34,11.16,2.11,16.73,1.25,9.06,2.58,18.1,3.9,27.15a22,22,0,0,0,.63,2.38Z" transform="translate(-22.78 -743.52)"/><path class="cls-1" d="M1674.27,1155.21c-1.11,1.3-.77,2.61-.77,3.82q.09,30.62.22,61.22a50.24,50.24,0,0,1-.26,5,2.37,2.37,0,0,1-2.19,2.21,10.67,10.67,0,0,1-1.68.19c-4.79.07-9.58.14-14.37.16a14,14,0,0,1-2.28-.43c-.13-1.17-.36-2.24-.37-3.31q-.06-12,0-24.06,0-43.49.09-87c0-1.4,0-2.82.07-4.21.2-2.58,1.15-3.54,3.62-3.83a13.41,13.41,0,0,1,1.68-.08c5.22,0,10.43,0,15.64,0,.43,0,.85,0,1.27,0,2.13,0,3.29,1.13,4,3.11,2.33,6.78,4.68,13.56,7.15,20.29,1.65,4.49,3.36,9,5.33,13.31,2.68,5.92,4.46,12.14,6.74,18.2,1.59,4.21,3.05,8.47,4.61,12.69a6.84,6.84,0,0,0,1,1.38c1.08-1.37.74-2.65.74-3.84-.07-12.38-.18-24.76-.24-37.15,0-7.6,0-15.19,0-22.79,0-1.53.11-3,.17-4.74a17.66,17.66,0,0,1,3-.63c5.08,0,10.15,0,15.22.07a6.71,6.71,0,0,1,1.67.22,1.87,1.87,0,0,1,1.56,1.75c.11,2.11.2,4.22.2,6.33q0,19-.06,38,0,35.25-.06,70.5c0,1.27,0,2.54-.13,3.8a2.11,2.11,0,0,1-2.1,2.21,11.89,11.89,0,0,1-1.69.1c-5.35,0-10.71-.12-16.06,0-2.31,0-3.71-.83-4.41-3-.59-1.87-1.39-3.69-2-5.54-2.89-8.08-5.64-16.21-8.69-24.22-4.66-12.23-9.52-24.37-14.31-36.55C1676.06,1157.29,1675.81,1156,1674.27,1155.21Z" transform="translate(-22.78 -743.52)"/><path class="cls-1" d="M844.51,1174.19a28.67,28.67,0,0,0,.39-3.17q-.06-29.77-.16-59.55c0-.7,0-1.41,0-2.11.09-3.89.32-4.16,4-4.17,4.09,0,8.18,0,12.26.06a15.82,15.82,0,0,1,1.69,0c2.54.25,3.2.9,3.37,3.38.06,1,.06,2,.06,3q0,54.9,0,109.81c0,1.8.31,3.66-.63,5.65a12,12,0,0,1-2.65.57c-5.5,0-11-.09-16.49-.08-2.59,0-4.26-1-5-3.58-.65-2.15-1.45-4.26-2.18-6.39-.36-1.07-.66-2.16-1.06-3.21-4.22-11.34-8.41-22.69-12.7-34-3-7.76-6-15.47-9.09-23.19a26.77,26.77,0,0,0-1.63-2.85c-.46.9-.87,1.34-.88,1.79,0,1.68.05,3.37.05,5.06q.07,30.62.12,61.23c0,5-.38,5.3-5.27,5.32-3.66,0-7.33,0-11-.07a18.52,18.52,0,0,1-2.11-.1c-1.87-.24-2.53-.85-2.7-2.65-.14-1.54-.17-3.09-.17-4.64,0-8.44,0-16.89,0-25.34q-.06-42-.14-84c0-1.41,0-2.82.12-4.22a1.83,1.83,0,0,1,1.64-1.67,12.42,12.42,0,0,1,2.11-.16q8.24.06,16.49.14c.56,0,1.12.06,1.69.1a4.33,4.33,0,0,1,4.12,3.05q4.49,12.07,9,24.11c1,2.77,2,5.57,3.16,8.29,4.17,9.85,7.27,20.1,11.13,30.07C842.54,1171.78,842.58,1173.17,844.51,1174.19Z" transform="translate(-22.78 -743.52)"/><path class="cls-1" d="M1245.77,1202.89c.86,1.22,1.69,2.51,2.61,3.72,4.16,5.51,8.36,11,12.5,16.5.81,1.08,2,2.09,1.53,4a8.91,8.91,0,0,1-2.2.62c-5.49.11-11,.12-16.48.21a8.1,8.1,0,0,1-6.07-2.5c-1.2-1.19-2.32-2.46-3.5-3.66-.76-.79-1.58-1.52-2.18-2.09-1.78,0-2.7.95-3.69,1.71a39.74,39.74,0,0,1-24,8.22,49.49,49.49,0,0,1-15.44-2,31.33,31.33,0,0,1-11.64-6.67,21.91,21.91,0,0,1-5.75-8.76c-3.08-8.06-4.06-16.39-2-24.87a37,37,0,0,1,12.14-19.82c1.39-1.19,2.85-2.3,4.23-3.51.72-.63,1.34-1.39,2.13-2.22l-1.39-2.15c-3.08-4.7-6.37-9.27-8.24-14.68a37.7,37.7,0,0,1-.3-23.25c.82-2.87,2.77-5.2,4.74-7.42,11.29-12.75,28-12.66,38.81-8.39,5.06,2,8.39,6,11.41,10.34,5.72,8.19,6,22.24-.67,31.94a46.47,46.47,0,0,1-11.91,12.42c-1.6,1.09-3.32,2.13-4.33,4.06.21,1.74,1.36,3,2.32,4.38,3.86,5.37,7.78,10.7,11.68,16a5.3,5.3,0,0,0,.84.77c1.06.2,1.29-.51,1.57-1.14a49.52,49.52,0,0,0,3.67-14.69c.55-4.85.6-5,5.3-5,3.52,0,7,0,10.56.3s4.42,1.4,4,4.92a82.78,82.78,0,0,1-6.53,23.94C1248.3,1197,1247.09,1199.81,1245.77,1202.89Zm-46.25-24.72a16.07,16.07,0,0,0-8.26,10.62,28.69,28.69,0,0,0-.27,10.49c1.42,8.69,10.54,14.59,19,11.51a31,31,0,0,0,8.44-4.69,6.43,6.43,0,0,0,1-1.62C1212.52,1196,1206.94,1186.53,1199.52,1178.17Zm5.76-28.31c2.74-2.62,5.18-4.73,7.34-7.1,4.29-4.71,5.09-10.45,4.2-16.5a6.56,6.56,0,0,0-4-5.1,12.91,12.91,0,0,0-5.25-1.28c-5.67.22-9.09,2.65-9.46,8.51a28.68,28.68,0,0,0,1.77,12.38A31.09,31.09,0,0,0,1205.28,1149.86Z" transform="translate(-22.78 -743.52)"/><path class="cls-1" d="M1927,1190.37c.8,1.86.4,3.86.48,5.8a23.21,23.21,0,0,0,1.8,8.62,10.06,10.06,0,0,0,9.12,6.47,37.82,37.82,0,0,0,4.64,0c5-.31,8-3.25,9.4-7.8,2-6.72.44-12.8-4.2-18.06-4.44-5-9.93-8.75-15.54-12.26a107.23,107.23,0,0,1-16.93-13.28,45.74,45.74,0,0,1-3.64-4.1c-4.15-5-5.57-11-5.85-17.3a38.92,38.92,0,0,1,1.61-14.62A44,44,0,0,1,1911,1117a11.14,11.14,0,0,1,4.25-4c3.63-2.14,7.21-4.4,10.89-6.46a18.27,18.27,0,0,1,5.41-2.27c7.83-1.46,15.62-1.8,23.4.72a27.2,27.2,0,0,1,13.87,9.85c1.27,1.68,2.58,3.34,3.83,5a8.08,8.08,0,0,1,1,1.83,42.64,42.64,0,0,1,2.86,15.27c0,1.69-.6,2.34-2.2,2.51-1.12.11-2.25.11-3.38.12-4.65,0-9.3.08-14,.06-1.89,0-2.55-.6-2.86-2.4-.16-1-.09-2-.29-2.94a33.62,33.62,0,0,0-1.62-6.52,10.2,10.2,0,0,0-9.06-6.6,17.13,17.13,0,0,0-5.44.41c-3.82,1-8.06,3.61-8.73,9.68a17.52,17.52,0,0,0,3.19,12.38,25.38,25.38,0,0,0,6.23,6.26c2.19,1.55,4.34,3.15,6.63,4.53a146.62,146.62,0,0,1,15.17,10.73,61.43,61.43,0,0,1,11.7,12.68,21.51,21.51,0,0,1,2.84,5.13,40.25,40.25,0,0,1,1.43,22.48c-1.85,8-5.93,14.54-13.18,18.82a38.55,38.55,0,0,1-15.91,5.29,50,50,0,0,1-27.88-5.13,23.75,23.75,0,0,1-12.37-14.81,48.29,48.29,0,0,1-1.8-17.14c.1-1.92.68-2.64,2.54-2.69,6.19-.18,12.39-.6,18.57.12C1926.34,1189.89,1926.45,1190,1927,1190.37Z" transform="translate(-22.78 -743.52)"/><path class="cls-1" d="M1882.93,1139.61c-2.82,0-5.63.05-8.45,0-1.89,0-2.49-.63-2.73-2.52-.17-1.4-.15-2.82-.35-4.2a14.94,14.94,0,0,0-3-7.77c-3.5-4.15-9.91-5.29-15.06-2.78a10.72,10.72,0,0,0-6.4,9.24,16.36,16.36,0,0,0,4,12.91,39,39,0,0,0,4.88,4.65c2.43,1.91,5,3.57,7.58,5.37,5,3.59,10.15,7.1,15.08,10.83a54,54,0,0,1,12.13,13.41,24.77,24.77,0,0,1,3.86,12.35,85.45,85.45,0,0,1,.1,10.12,28.62,28.62,0,0,1-19.69,25.91,48.16,48.16,0,0,1-37.35-2.45,22.26,22.26,0,0,1-9.16-7.91,36.49,36.49,0,0,1-5.72-24.14c.25-2.53.76-3.07,3.08-3.11q8.24-.16,16.48-.08c2.15,0,2.64.64,2.78,2.84s.19,4.5.38,6.74a20.68,20.68,0,0,0,.66,3.73c1.43,5.38,5.6,9.23,12.71,8.64a25.3,25.3,0,0,0,4.17-.64c4-1.07,6.74-3.57,7.61-7.66,1.3-6.06.48-11.79-3.46-16.77a27.74,27.74,0,0,0-4.39-4.54c-3.51-2.81-7.13-5.5-10.81-8.1-6.67-4.71-13.3-9.45-19.1-15.27a31.25,31.25,0,0,1-6.52-9.74c-2-4.51-2.4-9.27-2.34-14a35.35,35.35,0,0,1,2.57-12.77c3.1-7.77,8.85-13,16.54-15.89,8.22-3.11,16.87-3.44,25.43-2.06,13.5,2.19,22.1,11.89,24.81,24.47a53.08,53.08,0,0,1,.93,8.36c.11,2.12-.55,2.71-2.78,2.78-2.81.09-5.63,0-8.45,0Z" transform="translate(-22.78 -743.52)"/><path class="cls-1" d="M1068.81,1190.07c.12,2.41.26,4.5.33,6.58a18.89,18.89,0,0,0,3,10,10.42,10.42,0,0,0,1.87,2.25c5,4.21,13.84,3.46,18-1.56a9.56,9.56,0,0,0,1.79-3.3c1.89-6.63,1.11-12.81-3.4-18.28-3.53-4.29-8-7.48-12.48-10.68s-8.84-6-13.12-9.25a77,77,0,0,1-8-6.89,27.63,27.63,0,0,1-7.94-14.57,43.9,43.9,0,0,1,.55-20.07,21.34,21.34,0,0,1,5.55-9.81c6.61-6.61,14.31-10.9,23.91-11.1,1.83,0,3.66-.18,5.49-.25a36.91,36.91,0,0,1,17.15,3.85,14.83,14.83,0,0,1,3.22,2c8.93,7.35,13.64,16.65,13,28.37a7.84,7.84,0,0,1-.41,1.46,8.09,8.09,0,0,1-2.21.66c-5.35.08-10.71.15-16.06.07-2.8,0-3.28-.7-3.7-3.54a43.45,43.45,0,0,0-1.31-7c-1.88-5.8-6.29-8.49-12.37-7.87s-10,4.27-10.79,10.09a16.63,16.63,0,0,0,4.76,14.32,56.78,56.78,0,0,0,7.76,6.47c5,3.66,10.1,7.19,15.22,10.68,6,4.1,10.78,9.45,15.2,15.14a21.59,21.59,0,0,1,3.43,7.67,40.52,40.52,0,0,1,1,18c-2.1,11.72-8.72,19.83-20.2,23.84-7.39,2.58-15,2.82-22.55,1.93a38,38,0,0,1-19.21-8.2,22.3,22.3,0,0,1-6.78-9.55,44.16,44.16,0,0,1-2.6-19.51,2,2,0,0,1,2-2.25,6.75,6.75,0,0,1,1.26-.14c5.35,0,10.71,0,16.07,0A16.15,16.15,0,0,1,1068.81,1190.07Z" transform="translate(-22.78 -743.52)"/><path class="cls-1" d="M985.46,1190c1,1.65.6,3.25.76,4.76a56.63,56.63,0,0,0,.91,7.51c1.55,6.39,6.23,9.67,12.79,9.09a23.9,23.9,0,0,0,5.36-1.06,8.82,8.82,0,0,0,5.82-5.7c2.38-6.91,1.4-13.35-3.3-19a33.12,33.12,0,0,0-5.55-5.16c-4.85-3.62-9.82-7.08-14.75-10.58a106,106,0,0,1-13.85-11.71,27.39,27.39,0,0,1-8.07-17.66,44.26,44.26,0,0,1,1.57-16.71,26.6,26.6,0,0,1,14.52-16.66,35,35,0,0,1,15.09-3.6c3.24,0,6.48-.12,9.71,0a33,33,0,0,1,5.81,1c7.54,1.79,12.91,6.45,17.28,12.67,4,5.67,5.39,12,5.69,18.69a9.41,9.41,0,0,1-.08,1.68,1.86,1.86,0,0,1-1.58,1.74,11.37,11.37,0,0,1-2.1.17c-4.93,0-9.86,0-14.79-.07a20.39,20.39,0,0,1-2.9-.44c-1-1.75-.8-3.66-1.23-5.4a54,54,0,0,0-1.44-5.7c-1.6-4.22-4.81-6.46-9.3-6.84a13.26,13.26,0,0,0-2.52,0c-7.61.8-11.77,5.5-11.21,13.5a15.42,15.42,0,0,0,3.76,9.24,58.55,58.55,0,0,0,6.67,6.41c2.28,1.87,4.86,3.36,7.29,5,4.38,3.06,8.85,6,13.1,9.25a53.28,53.28,0,0,1,13.53,16,25.09,25.09,0,0,1,3.14,11.29c.17,3.09.15,6.19.09,9.29-.18,9.69-6.73,21.57-18.68,25.78a49.61,49.61,0,0,1-25,2.08,48.25,48.25,0,0,1-14.64-5.3,24.24,24.24,0,0,1-10.79-12,42.66,42.66,0,0,1-3.36-16.84,13.57,13.57,0,0,1,.1-1.69c.32-3.2.76-3.71,3.84-3.73,5.21,0,10.43,0,15.64.12A15.11,15.11,0,0,1,985.46,1190Z" transform="translate(-22.78 -743.52)"/><path class="cls-1" d="M952.74,1208.75a6.33,6.33,0,0,1,.58,1.59c0,4.92,0,9.85-.1,14.77,0,1.81-.77,2.38-2.69,2.56-1,.09-2,.09-3,.09q-28.32,0-56.65,0a34.73,34.73,0,0,1-4.21-.25,1.86,1.86,0,0,1-1.66-1.68,19.28,19.28,0,0,1-.2-2.94q0-31.45,0-62.92,0-25.12-.12-50.25c0-4.66.08-4.88,4.58-4.89q28.74,0,57.5.06c1,0,2,0,3,.11,2.44.22,3,.73,3.11,3.07.08,1.26,0,2.53,0,3.79,0,3,0,5.92,0,8.87a13.23,13.23,0,0,1-.29,1.89c-1.48,1.32-3.09.92-4.6.91-10.71-.07-21.42-.18-32.13-.27-1.41,0-2.82,0-4.23,0-2.94.18-3.43.72-3.42,3.56q0,9.72.07,19.43c0,1.54-.07,3.09,0,4.64.1,3.12.7,3.75,3.68,3.92,1,.06,2,0,3,0l24.94,0c4.83,0,5,.17,5.11,4.94q.12,4.84.07,9.71a17,17,0,0,1-.4,2.71c-1.59,1.1-3.19.77-4.7.77-8.74,0-17.48-.06-26.21-.07-1.39,0-2.78.11-4.12.17a10.49,10.49,0,0,0-1.35,5.45c0,8.31,0,16.61,0,24.92,0,4.65.42,5,5.09,5q17.55,0,35.09,0C949.75,1208.62,951.14,1208.7,952.74,1208.75Z" transform="translate(-22.78 -743.52)"/><path class="cls-1" d="M1812,1122.68c-2,1.06-3.76.74-5.43.73q-15.86-.12-31.7-.29c-1.13,0-2.26,0-3.38.06-3.53.19-3.9.57-4,3.94,0,.42,0,.84,0,1.27q.07,10.75.17,21.53c0,4.36.51,4.91,4.82,4.95,8.45.07,16.9,0,25.36.09a39.3,39.3,0,0,1,4.2.27,1.84,1.84,0,0,1,1.68,1.66c.18,2.1.31,4.21.28,6.31,0,3,.39,6.14-.31,9.17-1.78.93-3.49.7-5.14.7-8.46,0-16.91,0-25.36-.06-1.4,0-2.79.1-4.09.14a9.12,9.12,0,0,0-1.57,5.73q.11,11.82.09,23.64c0,5.93,0,6,5.75,6,11.55,0,23.11,0,34.66,0,1.38,0,2.81-.3,4.33.47a9.2,9.2,0,0,1,.51,1.85,118.09,118.09,0,0,1-.66,16.62,16.49,16.49,0,0,1-2.71.44q-30.65,0-61.29-.1c-1.24,0-2.56.22-3.78-.9-.67-1.44-.38-3.15-.38-4.8q0-28.71,0-57.42,0-26,0-51.93c0-1.55,0-3.1.06-4.64a2.89,2.89,0,0,1,2.88-3,30,30,0,0,1,3.79-.15l44.39,0,11,0c.7,0,1.4,0,2.11,0,3.65.1,4,.42,4.08,4.23.06,2,0,3.94,0,5.92,0,1.68,0,3.37-.06,5.06A24.13,24.13,0,0,1,1812,1122.68Z" transform="translate(-22.78 -743.52)"/><path class="cls-1" d="M1456.39,1173a13.15,13.15,0,0,0-1.13,5.92q-.12,13.29-.25,26.6c0,2,.58,2.74,2.7,3a31.53,31.53,0,0,0,3.37.09c10.85,0,21.71,0,32.56,0,1.52,0,3.09-.23,4.53.52a3.89,3.89,0,0,1,.49,1.21c0,4.92.07,9.85,0,14.77,0,1.92-.68,2.5-2.53,2.69a15.81,15.81,0,0,1-1.69.06l-56.65-.14a24.32,24.32,0,0,1-3-.17c-1.9-.24-2.53-.81-2.68-2.64s-.18-3.93-.18-5.9q0-17.31,0-34.63,0-36.73,0-73.47a36.86,36.86,0,0,1,.21-4.21,1.86,1.86,0,0,1,1.68-1.66,20.64,20.64,0,0,1,2.94-.19q27.9,0,55.81.14c4.42,0,4.73.39,4.82,4.87.06,3.09.06,6.19,0,9.29,0,1.25.11,2.55-.78,3.65-1.4.85-3,.63-4.52.62-8.31-.05-16.62-.17-24.94-.21-3.1,0-6.2,0-9.29.19-2.13.11-2.59.7-2.71,2.93,0,.85,0,1.69,0,2.54l0,21.11c0,4.53.2,4.83,4.69,4.88,8.17.09,16.35.09,24.52.16,4.92,0,5,.07,5.15,4.9.11,3.09.16,6.19.09,9.28-.07,3.34-.42,3.68-3.65,3.73-5.35.07-10.71.07-16.06.08-3.39,0-6.77,0-10.15,0Z" transform="translate(-22.78 -743.52)"/><path class="cls-1" d="M649.17,1175.51c-1.52,1.08-3.12.75-4.63.76-8,0-16.06,0-24.09.07-4.69,0-4.67,0-4.68,4.7q0,18.36-.09,36.72c0,2.25-.07,4.51-.28,6.75-.19,1.94-1,2.68-2.94,3a14.23,14.23,0,0,1-2.52.23c-3.94,0-7.89,0-11.83-.06a13.44,13.44,0,0,1-2.1-.19c-2-.33-2.66-1-2.82-3.06-.19-2.52-.23-5.06-.23-7.59q0-22.15,0-44.32,0-28.07-.05-56.14c0-2.39,0-4.78.07-7.17.14-3.11.91-3.85,4.12-4.13.84-.07,1.68-.1,2.53-.1q25.77-.06,51.55-.08c4.71,0,5,.35,5,5.08,0,3.38,0,6.76-.06,10.13-.07,2.86-.6,3.34-3.54,3.49-1.4.08-2.82.06-4.22,0-9-.08-18-.19-27-.26-5.64-.05-5.63,0-5.61,5.51,0,7.88,0,15.76.07,23.64,0,5.07.18,5.21,5.22,5.23l23.24.06c1,0,2,0,3,0,1.85.13,2.48.7,2.5,2.66,0,4.5,0,9-.1,13.5A5.2,5.2,0,0,1,649.17,1175.51Z" transform="translate(-22.78 -743.52)"/><path class="cls-1" d="M780.36,1105.27a14,14,0,0,1,.47,2.19c0,4.5.1,9,0,13.51,0,2.36-.62,2.91-3.12,2.91-6.2,0-12.4-.16-18.59-.18-1.65,0-3.38-.38-4.87.57-.93,1.35-.59,2.79-.59,4.17q0,41.58,0,83.16c0,3.24,0,6.48-.18,9.71-.21,4-1.32,5.28-5.2,5.92a68.73,68.73,0,0,1-14.76.34c-2.12-.11-2.67-.82-2.8-3-.08-1.26,0-2.53,0-3.79q-.09-45.6-.18-91.18c0-1.79.41-3.67-.65-5.27-1.35-.94-2.8-.62-4.18-.63-5.36,0-10.71,0-16.06,0-1,0-2,0-3,0-2.19-.14-2.83-.66-2.87-2.77q-.13-6.54,0-13.09c0-1.87.71-2.56,2.49-2.78a27.06,27.06,0,0,1,3.37-.15q32.76,0,65.51,0C776.8,1104.88,778.46,1105.12,780.36,1105.27Z" transform="translate(-22.78 -743.52)"/><path class="cls-1" d="M1570,1208.81a7.31,7.31,0,0,1,.47,1.6c0,4.92,0,9.85-.09,14.77,0,1.93-.62,2.43-2.59,2.58-.84.07-1.68.06-2.53.06l-49,0c-.42,0-.85,0-1.27,0-3-.12-3.33-.39-3.33-3.52,0-14.06.11-28.13.12-42.2q0-35.67,0-71.33c0-5.84,0-5.9,5.82-5.94,3.52,0,7,0,10.57,0,4.83.1,5.84,1.1,6,6,.15,3.66.24,7.31.26,11q.13,40.09.24,80.19c0,1.27,0,2.54,0,3.8.08,1.91.59,2.5,2.58,2.55,4,.11,7.89.09,11.84.11,5.91,0,11.83,0,17.74,0C1567.83,1208.58,1568.8,1208.72,1570,1208.81Z" transform="translate(-22.78 -743.52)"/><path class="cls-1" d="M1640.67,1227.7c-1.43.11-2.54.26-3.65.26q-24.94,0-49.88-.09c-1.27,0-2.54,0-3.8-.15a1.74,1.74,0,0,1-1.69-1.61,37,37,0,0,1-.16-3.79q0-42.87,0-85.72c0-8.45-.1-16.89-.14-25.34,0-1.41,0-2.82.11-4.22s.78-2,2.18-2.15a19.25,19.25,0,0,1,2.52-.13c4.09,0,8.18,0,12.27.08a16.33,16.33,0,0,1,2.1.13c2.38.31,3.14,1,3.42,3.5a35,35,0,0,1,.19,4.22c0,7.88-.06,15.76,0,23.65q.06,30.18.19,60.38c0,3-.11,5.91,0,8.87,0,2.07.76,2.78,2.77,3a26.54,26.54,0,0,0,3,.07l26.63-.1c.43,0,.85,0,1.27,0,2.74.12,3.28.61,3.3,3.21,0,4.65,0,9.29,0,13.94A11.91,11.91,0,0,1,1640.67,1227.7Z" transform="translate(-22.78 -743.52)"/><path class="cls-1" d="M668.82,1105.37a26.74,26.74,0,0,1,3.35-.42c4.79-.06,9.58,0,14.37,0a12.3,12.3,0,0,1,2.1.16,2.4,2.4,0,0,1,2.32,2.53,36.72,36.72,0,0,1,.15,3.79q0,53.58-.12,107.16c0,2,0,4-.11,5.91-.15,2.23-.86,2.89-3.13,3.2a16.48,16.48,0,0,1-2.11.12l-11.4-.09c-.56,0-1.13,0-1.69-.09-3.5-.36-4.16-.91-4.39-4.36s-.32-7-.33-10.54q-.06-47.25-.06-94.51c0-3,0-5.9,0-8.86A5.28,5.28,0,0,1,668.82,1105.37Z" transform="translate(-22.78 -743.52)"/></svg>